<mxfile host="app.diagrams.net" modified="2020-08-03T23:52:36.119Z" agent="5.0 (Windows NT 10.0; Win64; x64) AppleWebKit/537.36 (KHTML, like Gecko) Chrome/84.0.4147.105 Safari/537.36" etag="p8b4HZGnwzSbxL1k2pPX" version="13.5.9" type="github">
  <diagram name="Page-1" id="e7e014a7-5840-1c2e-5031-d8a46d1fe8dd">
    <mxGraphModel dx="868" dy="401" grid="1" gridSize="10" guides="1" tooltips="1" connect="1" arrows="1" fold="1" page="1" pageScale="1" pageWidth="1169" pageHeight="826" background="#ffffff" math="0" shadow="0">
      <root>
        <mxCell id="0" />
        <mxCell id="1" parent="0" />
        <mxCell id="tegLDQ7x4PN-cwUTBF5U-41" value="User Interface" style="rounded=0;whiteSpace=wrap;html=1;" vertex="1" parent="1">
          <mxGeometry x="200" y="40" width="120" height="60" as="geometry" />
        </mxCell>
        <mxCell id="tegLDQ7x4PN-cwUTBF5U-42" value="Time Keeping Controller" style="rounded=0;whiteSpace=wrap;html=1;" vertex="1" parent="1">
          <mxGeometry x="200" y="160" width="120" height="60" as="geometry" />
        </mxCell>
        <mxCell id="tegLDQ7x4PN-cwUTBF5U-44" value="Time Keeping Event" style="rounded=0;whiteSpace=wrap;html=1;" vertex="1" parent="1">
          <mxGeometry x="465" y="90" width="205" height="60" as="geometry" />
        </mxCell>
        <mxCell id="tegLDQ7x4PN-cwUTBF5U-45" value="" style="endArrow=none;html=1;exitX=1;exitY=0.5;exitDx=0;exitDy=0;entryX=0.561;entryY=-0.033;entryDx=0;entryDy=0;entryPerimeter=0;" edge="1" parent="1" source="tegLDQ7x4PN-cwUTBF5U-41" target="tegLDQ7x4PN-cwUTBF5U-44">
          <mxGeometry width="50" height="50" relative="1" as="geometry">
            <mxPoint x="415" y="120" as="sourcePoint" />
            <mxPoint x="465" y="70" as="targetPoint" />
            <Array as="points">
              <mxPoint x="580" y="70" />
            </Array>
          </mxGeometry>
        </mxCell>
        <mxCell id="tegLDQ7x4PN-cwUTBF5U-46" value="Start Shift&#xa;Start Break&#xa;End shift&#xa;End Break" style="swimlane;fontStyle=0;align=left;verticalAlign=top;childLayout=stackLayout;horizontal=1;startSize=80;horizontalStack=0;resizeParent=1;resizeParentMax=0;resizeLast=0;collapsible=1;marginBottom=0;" vertex="1" parent="1">
          <mxGeometry x="465" y="150" width="205" height="80" as="geometry" />
        </mxCell>
        <mxCell id="tegLDQ7x4PN-cwUTBF5U-52" value="" style="endArrow=open;endFill=1;endSize=12;html=1;" edge="1" parent="1" target="tegLDQ7x4PN-cwUTBF5U-42">
          <mxGeometry width="160" relative="1" as="geometry">
            <mxPoint x="260" y="100" as="sourcePoint" />
            <mxPoint x="420" y="100" as="targetPoint" />
          </mxGeometry>
        </mxCell>
        <mxCell id="tegLDQ7x4PN-cwUTBF5U-53" value="" style="endArrow=open;endFill=1;endSize=12;html=1;" edge="1" parent="1">
          <mxGeometry width="160" relative="1" as="geometry">
            <mxPoint x="580" y="80" as="sourcePoint" />
            <mxPoint x="580" y="90" as="targetPoint" />
          </mxGeometry>
        </mxCell>
      </root>
    </mxGraphModel>
  </diagram>
</mxfile>
